{"glyphs":{"0":{"ha":1504,"x_min":0,"x_max":0,"o":"m 752 1090 b 72 537 376 1090 72 842 b 752 -15 72 232 376 -15 b 1432 537 1128 -15 1432 232 b 752 1090 1432 842 1128 1090 z m 753 127 b 270 537 484 127 270 305 b 757 946 270 770 488 946 b 1245 537 1027 946 1245 770 b 753 127 1245 305 1023 127 z "},"1":{"ha":975,"x_min":0,"x_max":0,"o":"m 904 150 l 582 150 l 582 1088 b 396 1088 488 1088 491 1088 b 231 911 394 1029 333 944 b 72 887 141 883 72 887 l 72 693 b 409 994 292 706 397 908 b 409 150 409 726 409 427 l 72 150 l 72 -1 l 904 -1 z "},"2":{"ha":1297,"x_min":0,"x_max":0,"o":"m 308 637 b 314 785 302 662 284 727 b 663 948 359 872 432 948 b 1013 695 841 949 1008 848 b 86 141 1023 424 395 190 b 86 1 86 55 86 86 b 1201 1 499 1 784 1 l 1203 174 l 370 162 b 1183 529 370 162 1020 260 b 1199 820 1233 611 1239 726 b 550 1091 1129 984 939 1122 b 270 1003 453 1084 345 1052 b 75 737 162 932 94 856 b 83 638 64 673 83 638 z "},"3":{"ha":1290,"x_min":0,"x_max":0,"o":"m 1129 515 b 636 581 1022 611 795 613 l 1135 981 l 1135 1086 l 150 1086 l 150 932 b 827 932 300 932 553 932 l 398 593 l 396 508 b 871 502 396 508 706 551 b 999 418 932 484 978 447 b 1022 321 1022 385 1027 351 b 687 135 1006 208 861 140 b 293 330 416 126 310 232 b 289 392 285 373 289 392 l 75 385 b 224 84 75 385 35 199 b 957 32 408 -28 749 -32 b 1129 515 1263 125 1273 385 z "},"4":{"ha":1356,"x_min":0,"x_max":0,"o":"m 1284 387 l 1085 387 l 1085 1085 l 897 1085 l 897 387 l 264 388 b 695 647 407 428 576 480 b 755 857 720 683 758 764 b 741 937 754 891 746 919 l 520 935 b 494 603 528 915 599 741 b 72 369 362 430 72 369 l 72 216 l 897 216 l 897 1 l 1085 1 l 1085 216 l 1284 216 z "},"5":{"ha":1328,"x_min":0,"x_max":0,"o":"m 1230 461 b 728 668 1161 614 947 676 b 291 519 536 660 388 593 l 368 924 l 1197 926 l 1195 1082 l 228 1082 l 90 427 l 269 426 b 1011 436 470 556 860 572 b 1012 243 1061 392 1078 309 b 503 154 904 134 664 126 b 272 322 436 166 287 232 l 72 317 b 188 121 79 231 139 160 b 906 12 323 15 557 -54 b 1230 461 1150 58 1327 246 z "},"6":{"ha":1414,"x_min":0,"x_max":0,"o":"m 1309 496 b 1002 672 1241 624 1106 658 b 281 454 675 717 368 542 b 267 587 269 482 261 542 b 569 922 285 734 384 866 b 1029 864 713 964 912 976 b 1082 704 1104 791 1082 704 l 1269 706 b 1250 825 1272 735 1267 779 b 375 1011 1124 1169 608 1133 b 75 454 133 884 52 661 b 233 159 80 410 115 267 b 933 2 354 48 596 -54 b 1309 496 1398 80 1369 384 z m 970 156 b 301 409 826 117 412 113 b 717 530 363 448 545 506 b 1104 465 843 547 1029 549 b 970 156 1210 346 1134 200 z "},"7":{"ha":1263,"x_min":0,"x_max":0,"o":"m 72 1085 l 72 928 l 1033 927 b 607 689 890 886 699 765 b 374 363 521 619 437 520 b 337 1 346 293 323 163 l 561 1 b 552 279 544 58 529 159 b 880 767 590 472 632 602 b 1192 925 1048 879 1192 925 l 1192 1085 z "},"8":{"ha":1331,"x_min":0,"x_max":0,"o":"m 1211 428 b 928 552 1152 502 1010 546 b 920 552 926 552 923 552 b 1091 602 979 559 1060 584 b 1150 659 1118 619 1134 637 b 1184 820 1196 719 1188 795 b 1103 966 1173 893 1130 939 b 888 1065 1070 1000 1000 1039 b 410 1063 686 1112 486 1083 b 136 880 308 1036 189 998 b 126 728 130 865 106 801 b 383 555 150 640 253 579 b 410 553 391 554 410 553 b 78 350 410 553 123 523 b 187 95 54 255 98 150 b 930 9 377 -23 706 -34 b 1256 255 1162 54 1244 174 b 1211 428 1260 282 1270 356 z m 660 955 b 1011 784 859 955 1011 894 b 666 625 1011 673 865 625 b 307 784 487 625 315 680 b 660 955 298 897 461 955 z m 657 124 b 265 302 438 128 265 180 b 657 480 265 431 432 480 b 1064 302 882 480 1056 418 b 657 124 1074 179 882 119 z "},"9":{"ha":1383,"x_min":0,"x_max":0,"o":"m 104 600 b 397 427 168 490 289 437 b 1120 644 737 394 1029 552 b 1129 492 1132 615 1131 539 b 859 159 1121 339 1036 212 b 431 187 715 116 550 130 b 288 381 294 254 288 381 l 86 378 b 128 237 86 378 87 310 b 1008 55 299 -64 774 -61 b 1307 632 1259 180 1333 420 b 1142 935 1295 730 1255 826 b 482 1078 1019 1053 765 1125 b 189 963 349 1056 244 1012 b 104 600 47 838 55 682 z m 388 906 b 1103 693 547 979 987 1002 b 694 574 1039 653 873 599 b 305 633 564 556 370 559 b 388 906 245 701 236 835 z "},"\u0000":{"ha":601,"x_min":0,"x_max":0,"o":""},"\n":{"ha":0,"x_min":0,"x_max":0,"o":""},"\r":{"ha":0,"x_min":0,"x_max":0,"o":""}," ":{"ha":507,"x_min":0,"x_max":0,"o":""},"!":{"ha":347,"x_min":0,"x_max":0,"o":"m 222 301 l 276 1128 l 72 1128 l 120 301 z m 174 -11 b 276 91 230 -11 276 35 b 174 194 276 148 230 194 b 72 91 117 194 72 148 b 174 -11 72 35 117 -11 z "},"\"":{"ha":665,"x_min":0,"x_max":0,"o":"m 593 1174 l 460 1174 b 370 995 460 1174 395 1110 b 378 796 347 892 378 796 l 566 796 b 520 985 566 796 515 892 b 593 1174 527 1112 593 1174 z m 170 1174 b 80 995 170 1174 105 1110 b 88 796 57 892 88 796 l 276 796 b 230 985 276 796 225 892 b 303 1174 237 1112 303 1174 z "},"&":{"ha":1400,"x_min":0,"x_max":0,"o":"m 1325 163 l 1181 256 l 1078 323 b 1244 623 1203 422 1244 623 l 1056 625 b 1024 359 1056 625 1078 490 l 788 513 b 548 674 778 519 648 598 b 447 773 500 710 466 745 b 442 781 446 776 444 779 b 633 978 376 908 500 1000 b 775 816 782 953 775 816 l 957 816 b 818 1055 957 816 956 975 b 408 1075 706 1119 542 1132 b 291 704 303 1029 184 877 b 377 611 306 681 368 618 b 72 321 194 594 72 458 b 635 -28 72 85 297 -63 b 994 190 800 -11 944 111 b 1327 -33 1113 113 1327 -33 z m 617 103 b 236 358 436 99 245 187 b 437 566 232 435 274 538 b 942 226 549 482 741 357 b 617 103 874 154 765 106 z "},"'":{"ha":317,"x_min":0,"x_max":0,"o":"m 256 1174 l 68 1174 b 114 985 68 1174 120 1078 b 41 796 107 857 41 796 l 175 796 b 264 974 175 796 239 860 b 256 1174 287 1078 256 1174 z "},"(":{"ha":532,"x_min":0,"x_max":0,"o":"m 238 538 b 460 1281 238 919 460 1281 l 348 1281 b 72 527 348 1281 72 940 b 344 -228 72 92 344 -228 l 460 -228 b 238 538 460 -228 239 105 z "},")":{"ha":532,"x_min":0,"x_max":0,"o":"m 72 -236 l 188 -236 b 460 518 188 -236 460 83 b 183 1273 460 932 183 1273 l 72 1273 b 293 529 72 1273 294 910 b 72 -236 293 97 72 -236 z "},",":{"ha":444,"x_min":0,"x_max":0,"o":"m 371 176 l 184 176 b 187 -13 184 176 213 80 b 72 -203 151 -141 72 -203 l 205 -203 b 335 -24 205 -203 284 -139 b 371 176 381 80 371 176 z "},"-":{"ha":735,"x_min":0,"x_max":0,"o":"m 663 265 l 663 409 l 72 409 l 72 265 z "},".":{"ha":349,"x_min":0,"x_max":0,"o":"m 174 -8 b 276 94 230 -8 276 38 b 174 197 276 151 230 197 b 72 94 117 197 72 151 b 174 -8 72 38 117 -8 z "},"/":{"ha":1039,"x_min":0,"x_max":0,"o":"m 967 1242 l 801 1242 l 72 -2 l 238 -2 z "},":":{"ha":349,"x_min":0,"x_max":0,"o":"m 174 456 b 276 558 230 456 276 502 b 174 661 276 615 230 661 b 72 558 117 661 72 615 b 174 456 72 502 117 456 z m 174 -10 b 276 93 230 -10 276 36 b 174 195 276 149 230 195 b 72 93 117 195 72 149 b 174 -10 72 36 117 -10 z "},";":{"ha":456,"x_min":0,"x_max":0,"o":"m 281 426 b 384 529 338 426 384 472 b 281 631 384 585 338 631 b 179 529 225 631 179 585 b 281 426 179 472 225 426 z m 184 150 b 187 -39 184 150 213 54 b 72 -228 151 -167 72 -228 l 205 -228 b 335 -50 205 -228 284 -164 b 371 150 381 54 371 150 z "},"?":{"ha":1042,"x_min":0,"x_max":0,"o":"m 949 931 b 444 1143 895 1059 745 1183 b 73 867 208 1111 89 987 b 80 789 67 816 80 789 l 255 789 b 260 904 250 808 237 858 b 532 1031 295 972 362 1027 b 805 833 671 1034 805 953 b 361 540 805 577 361 540 l 392 296 l 485 296 l 518 496 b 937 704 518 496 842 540 b 949 931 975 769 981 857 z m 434 -15 b 537 87 491 -15 537 31 b 434 189 537 144 491 189 b 332 87 378 189 332 144 b 434 -15 332 31 378 -15 z "},"@":{"ha":2242,"x_min":0,"x_max":0,"o":"m 1100 1145 b 72 337 532 1145 72 783 b 1082 -428 72 -109 480 -428 b 1587 -323 1266 -428 1438 -389 l 1582 -126 b 1077 -257 1440 -208 1268 -256 b 262 348 634 -259 258 6 b 1095 996 266 684 650 995 b 1944 348 1564 996 1974 704 b 1567 155 1926 125 1677 77 l 1567 652 l 1401 652 l 1401 555 b 1022 685 1312 635 1175 685 b 535 337 753 685 535 530 b 1022 -11 535 145 753 -11 b 1401 119 1175 -11 1312 40 l 1401 22 b 2130 337 1704 -146 2107 22 b 1100 1145 2162 782 1669 1145 z m 1020 125 b 708 342 848 125 708 222 b 1020 559 708 461 848 559 b 1332 342 1192 559 1332 461 b 1020 125 1332 222 1192 125 z "},"A":{"ha":1478,"x_min":0,"x_max":0,"o":"m 831 1091 l 638 1091 l 23 1 l 224 1 l 387 304 l 1084 304 l 1251 0 l 1451 1 z m 467 455 l 731 946 l 1001 455 z "},"B":{"ha":1140,"x_min":0,"x_max":0,"o":"m 792 581 b 903 618 792 581 841 590 b 1025 810 988 655 1027 720 b 630 1085 1021 978 888 1084 b 224 1084 535 1086 301 1085 l 223 1084 l 223 1085 l 57 1085 l 57 2 l 223 2 b 669 1 304 1 579 -2 b 1099 309 920 9 1099 97 b 929 549 1099 416 1042 505 b 792 581 873 571 792 581 z m 224 955 b 663 956 293 955 584 959 b 863 796 797 951 864 891 b 588 649 863 690 770 650 b 224 650 489 648 224 650 z m 642 136 b 223 137 538 135 295 136 l 223 499 b 678 500 223 499 573 504 b 920 315 829 494 919 424 b 642 136 921 207 816 137 z "},"C":{"ha":1443,"x_min":0,"x_max":0,"o":"m 1229 418 b 727 143 1158 258 961 143 b 196 548 434 143 196 324 b 727 953 196 772 434 953 b 1237 658 970 953 1174 828 l 1418 658 b 730 1095 1349 907 1068 1095 b 25 541 341 1095 25 847 b 730 -13 25 235 341 -13 b 1417 418 1066 -13 1346 171 z "},"D":{"ha":1304,"x_min":0,"x_max":0,"o":"m 742 1077 b 223 1084 602 1093 336 1085 l 57 1084 l 57 0 l 223 0 b 709 8 333 0 585 -1 b 1279 543 1079 36 1279 230 b 742 1077 1279 821 1078 1040 z m 715 165 b 223 153 565 148 327 151 l 223 945 b 730 931 332 947 607 953 b 1096 543 947 892 1091 764 b 715 165 1101 340 968 193 z "},"E":{"ha":968,"x_min":0,"x_max":0,"o":"m 910 940 l 910 1083 l 57 1083 l 57 0 l 910 0 l 910 146 l 223 146 l 223 479 l 711 480 l 711 622 l 223 622 l 223 940 z "},"F":{"ha":931,"x_min":0,"x_max":0,"o":"m 897 940 l 897 1083 l 57 1083 l 57 0 l 223 0 l 225 471 l 702 470 l 702 612 l 225 613 l 223 940 z "},"G":{"ha":1490,"x_min":0,"x_max":0,"o":"m 1263 502 l 903 503 l 903 375 l 1254 375 b 727 143 1221 201 947 136 b 196 548 434 152 196 324 b 727 953 196 771 434 953 b 1236 657 970 953 1174 827 l 1417 657 b 730 1094 1349 906 1068 1094 b 25 541 340 1094 25 846 b 730 -13 25 235 340 -13 b 1263 269 1016 -13 1225 113 l 1263 -1 l 1429 -1 l 1429 503 l 1297 502 z "},"H":{"ha":1140,"x_min":0,"x_max":0,"o":"m 910 1089 l 912 619 l 226 617 l 224 1084 l 57 1083 l 64 0 l 230 1 l 227 469 l 913 471 l 916 6 l 1082 7 l 1076 1090 z "},"I":{"ha":310,"x_min":0,"x_max":0,"o":"m 238 0 l 238 1083 l 72 1083 l 72 0 z "},"J":{"ha":825,"x_min":0,"x_max":0,"o":"m 753 1081 l 588 1081 l 588 498 b 588 459 588 485 588 472 b 542 180 589 344 599 245 b 283 179 483 114 342 119 b 253 328 232 230 253 328 l 77 330 b 79 190 77 330 63 259 b 262 8 102 92 175 41 b 732 191 356 -28 676 -22 b 753 452 757 283 753 369 b 753 491 752 464 753 478 z "},"K":{"ha":1263,"x_min":0,"x_max":0,"o":"m 587 563 l 1196 1083 l 952 1083 l 223 448 l 223 1083 l 57 1083 l 57 0 l 223 0 l 223 252 l 468 461 l 991 0 l 1236 0 z "},"L":{"ha":947,"x_min":0,"x_max":0,"o":"m 223 153 l 223 1083 l 57 1083 l 57 0 l 922 0 l 922 154 z "},"M":{"ha":1615,"x_min":0,"x_max":0,"o":"m 1377 1083 l 808 164 l 239 1083 l 57 1083 l 57 0 l 224 0 l 224 815 l 730 0 l 885 0 l 1392 816 l 1392 0 l 1558 0 l 1558 1083 z "},"N":{"ha":1189,"x_min":0,"x_max":0,"o":"m 966 1083 l 966 254 l 231 1083 l 49 1083 l 49 0 l 216 0 l 216 842 l 966 1 l 967 0 l 1132 0 l 1132 1083 z "},"O":{"ha":1443,"x_min":0,"x_max":0,"o":"m 721 1096 b 23 548 335 1096 23 851 b 721 0 23 245 335 0 b 1419 548 1107 0 1419 245 b 721 1096 1419 851 1107 1096 z m 718 154 b 193 555 428 154 193 334 b 718 956 193 777 428 956 b 1243 555 1008 956 1243 777 b 718 154 1243 334 1008 154 z "},"P":{"ha":1133,"x_min":0,"x_max":0,"o":"m 1111 752 b 939 1045 1106 895 1044 996 b 668 1084 866 1079 771 1081 b 222 1083 578 1086 304 1084 l 56 1083 l 56 0 l 222 0 l 222 1 l 223 1 l 223 437 b 637 435 223 437 495 433 b 852 454 718 437 790 439 b 1111 752 1023 496 1116 598 z m 919 770 b 677 585 921 652 840 590 b 222 586 572 582 222 586 l 222 948 b 641 949 294 948 537 950 b 919 770 816 948 917 900 z "},"Q":{"ha":1446,"x_min":0,"x_max":0,"o":"m 1417 540 b 721 1086 1417 841 1106 1086 b 24 540 336 1086 24 841 b 512 18 24 295 229 87 b 674 -4 577 2 633 -3 b 1026 -241 694 -85 783 -264 b 1201 -77 1109 -233 1188 -175 b 1203 -8 1206 -41 1203 -8 l 1007 -8 b 932 -110 1007 -8 1040 -105 b 784 -6 867 -112 807 -64 b 1417 540 1139 20 1417 254 z m 718 146 b 194 546 429 146 194 325 b 718 946 194 767 429 946 b 1242 546 1007 946 1242 767 b 718 146 1242 325 1007 146 z "},"R":{"ha":1151,"x_min":0,"x_max":0,"o":"m 978 386 b 737 460 900 437 822 449 b 853 469 737 460 811 462 b 1111 752 1033 496 1116 598 b 939 1045 1107 895 1044 996 b 668 1084 866 1079 771 1080 b 222 1083 578 1086 304 1084 l 56 1083 l 56 0 l 222 0 l 222 1 l 223 1 l 222 439 b 538 439 222 439 397 439 b 775 387 608 440 725 421 b 896 237 827 351 873 300 b 929 1 932 139 929 1 l 1125 1 b 1109 148 1125 1 1122 55 b 978 386 1099 214 1076 322 z m 222 578 l 222 948 b 651 949 296 949 545 950 b 935 770 829 948 926 900 b 688 577 944 640 854 586 b 222 578 559 570 222 578 z "},"S":{"ha":1226,"x_min":0,"x_max":0,"o":"m 917 609 b 386 638 745 637 561 621 b 218 723 304 646 231 681 b 252 845 204 768 226 817 b 589 947 311 906 442 943 b 941 847 727 951 871 920 b 999 706 997 789 999 706 l 1162 707 b 1133 825 1162 707 1164 761 b 783 1070 1046 1004 894 1048 b 88 885 717 1084 250 1130 b 107 579 25 789 36 657 b 617 467 194 484 367 470 b 994 406 795 465 942 460 b 918 182 1055 344 1037 233 b 324 182 770 119 452 115 b 201 365 202 245 201 365 l 33 365 b 145 114 33 365 35 211 b 1100 100 350 -64 924 -54 b 1188 374 1184 175 1204 277 b 917 609 1163 521 1045 587 z "},"T":{"ha":1138,"x_min":0,"x_max":0,"o":"m 27 1083 l 27 940 l 485 940 l 485 0 l 652 0 l 652 940 l 1110 940 l 1110 1083 z "},"U":{"ha":1207,"x_min":0,"x_max":0,"o":"m 1159 1035 l 1159 1086 l 989 1086 b 990 528 989 1086 993 648 b 590 122 981 235 868 127 b 226 512 387 118 234 253 b 224 1086 221 663 224 1086 l 49 1086 l 49 1035 b 48 520 48 925 45 645 b 602 -21 59 153 227 -21 b 1162 464 956 -21 1146 127 b 1159 1035 1168 601 1160 923 z "},"V":{"ha":1476,"x_min":0,"x_max":0,"o":"m 1250 1089 l 743 168 l 223 1090 l 23 1089 l 643 -1 l 836 -1 l 1451 1089 z "},"W":{"ha":1857,"x_min":0,"x_max":0,"o":"m 1638 1090 l 1327 217 l 1030 1089 l 831 1089 l 535 217 l 223 1090 l 28 1089 l 432 -1 l 614 -1 l 931 829 l 1247 -1 l 1429 -1 l 1833 1089 z "},"X":{"ha":1192,"x_min":0,"x_max":0,"o":"m 1165 1083 l 953 1083 l 603 636 l 246 1083 l 26 1083 l 492 536 l 24 0 l 248 0 l 598 431 l 946 0 l 1171 0 l 706 541 z "},"Y":{"ha":1182,"x_min":0,"x_max":0,"o":"m 948 1083 l 599 636 l 241 1083 l 22 1083 l 507 512 l 507 0 l 674 0 l 674 510 l 1160 1083 z "},"Z":{"ha":1088,"x_min":0,"x_max":0,"o":"m 1038 1083 l 28 1083 l 28 952 l 796 952 l 28 130 l 28 0 l 1055 0 l 1055 139 l 264 139 l 1038 965 z "},"\\":{"ha":1039,"x_min":0,"x_max":0,"o":"m 801 -2 l 967 -2 l 238 1242 l 72 1242 z "},"_":{"ha":1254,"x_min":0,"x_max":0,"o":"m 1182 -136 l 1182 -4 l 72 -4 l 72 -136 z "},"a":{"ha":1014,"x_min":0,"x_max":0,"o":"m 933 464 b 816 611 905 550 837 597 b 704 660 804 619 770 641 b 380 676 578 696 416 681 b 158 591 316 666 232 650 b 87 455 77 526 87 455 b 273 456 149 455 211 456 b 308 518 275 464 275 495 b 579 559 387 575 522 570 b 723 496 665 542 702 515 b 772 424 754 467 765 442 b 778 386 777 412 778 386 b 269 386 610 392 436 404 b 60 273 161 374 90 332 b 128 29 19 191 38 84 b 658 40 246 -42 512 -57 b 781 162 739 93 781 162 l 779 1 l 949 1 l 949 350 b 933 464 949 396 939 446 z m 505 99 b 214 188 378 78 210 89 b 419 279 217 260 290 276 b 777 275 538 281 659 281 b 505 99 763 199 652 123 z "},"b":{"ha":1135,"x_min":0,"x_max":0,"o":"m 562 684 b 234 507 320 660 234 507 l 236 1130 l 65 1130 l 63 1 l 234 1 l 234 129 b 562 -12 234 129 328 9 b 1096 337 824 -34 1096 94 b 562 684 1096 598 829 711 z m 562 125 b 267 341 399 133 267 222 b 562 556 267 460 407 551 b 911 337 747 563 914 504 b 562 125 908 184 752 115 z "},"c":{"ha":1022,"x_min":0,"x_max":0,"o":"m 791 260 b 764 213 786 246 778 230 b 516 110 717 155 635 110 b 217 337 351 110 217 212 b 516 563 217 462 351 563 b 779 447 629 563 732 518 b 798 400 789 431 795 413 l 991 400 b 978 448 989 413 986 431 b 518 680 918 584 730 680 b 31 332 249 680 31 525 b 518 -16 31 140 249 -16 b 976 216 729 -16 908 81 b 989 260 983 230 987 246 z "},"d":{"ha":1135,"x_min":0,"x_max":0,"o":"m 900 1130 l 902 507 b 573 684 902 507 815 660 b 39 337 307 711 39 598 b 573 -12 39 94 311 -34 b 902 129 807 9 902 129 l 902 1 l 1071 1 l 1070 1130 z m 572 125 b 224 337 383 115 227 184 b 572 556 221 504 388 563 b 868 341 728 551 868 460 b 572 125 868 222 736 133 z "},"e":{"ha":1014,"x_min":0,"x_max":0,"o":"m 939 472 b 493 680 867 605 694 682 b 50 438 225 678 83 523 b 34 296 43 418 25 364 b 324 11 47 203 120 64 b 837 60 523 -40 727 -15 b 963 209 946 134 963 209 l 779 209 b 614 119 773 189 731 135 b 296 173 481 101 366 125 b 220 279 232 218 220 279 b 980 278 474 279 726 278 b 939 472 983 316 985 387 z m 217 386 b 340 522 217 386 226 462 b 765 434 445 578 675 583 b 788 386 783 405 788 386 z "},"f":{"ha":744,"x_min":0,"x_max":0,"o":"m 728 887 b 721 977 728 887 730 928 b 410 1142 694 1117 556 1165 b 194 959 299 1124 230 1053 b 164 745 166 886 164 826 l 165 670 l 43 670 l 43 535 l 165 535 l 165 0 l 338 0 b 338 535 338 65 338 379 l 617 534 l 617 670 l 338 670 b 338 713 338 738 339 682 b 459 1031 333 865 341 1028 b 555 888 574 1034 555 888 z "},"g":{"ha":1275,"x_min":0,"x_max":0,"o":"m 1239 451 b 1238 521 1239 451 1243 484 b 934 648 1215 689 1024 694 b 863 576 882 622 863 576 b 846 591 858 581 853 586 b 524 680 774 643 668 680 b 103 499 311 680 164 603 b 131 208 39 390 60 280 b 214 150 148 191 174 170 b 91 100 168 142 119 128 b 82 -26 58 66 54 13 b 165 -79 99 -50 129 -68 b 230 -91 192 -87 206 -90 b 138 -125 230 -91 194 -99 b 8 -354 95 -145 -26 -212 b 126 -484 23 -417 82 -459 b 591 -557 219 -535 362 -564 b 1013 -404 690 -553 893 -527 b 1072 -160 1079 -336 1096 -236 b 887 11 1042 -65 969 -12 b 509 41 788 38 657 43 b 244 49 368 39 284 40 b 283 113 190 64 199 108 b 331 108 302 113 323 110 b 839 157 483 76 710 82 b 971 315 880 180 950 229 b 955 464 987 382 965 443 b 925 514 947 481 937 498 b 903 539 925 514 914 527 b 987 557 930 557 956 562 b 1050 453 1074 544 1050 453 z m 280 -119 b 528 -94 357 -95 442 -94 b 788 -120 617 -94 722 -103 b 894 -264 879 -143 905 -211 b 528 -422 879 -346 736 -422 b 159 -258 320 -422 165 -354 b 280 -119 155 -208 190 -146 z m 801 344 b 698 244 789 295 756 263 b 294 276 589 206 374 207 b 329 513 221 339 226 449 b 476 561 384 548 454 558 b 609 553 538 568 586 558 b 722 507 641 546 682 537 b 788 432 741 495 771 472 b 801 344 793 419 810 382 z "},"h":{"ha":1043,"x_min":0,"x_max":0,"o":"m 63 1129 b 64 0 63 906 64 223 b 234 0 117 0 181 0 b 234 254 234 103 231 151 b 281 418 236 339 262 391 b 419 523 322 479 382 507 b 717 504 506 560 653 559 b 805 276 781 450 805 389 b 805 0 805 159 805 117 b 978 0 863 0 921 0 b 979 261 978 129 979 132 b 978 326 979 276 977 300 b 857 595 979 408 946 523 b 591 681 760 673 657 680 b 348 613 502 682 412 659 b 232 465 269 557 232 465 b 232 1129 232 532 232 1062 z "},"i":{"ha":321,"x_min":0,"x_max":0,"o":"m 68 672 l 68 0 l 238 0 l 238 672 z m 159 937 b 255 1033 212 937 255 980 b 159 1129 255 1086 212 1129 b 63 1033 106 1129 63 1086 b 159 937 63 980 106 937 z "},"j":{"ha":422,"x_min":0,"x_max":0,"o":"m 223 930 b 319 1026 276 930 319 973 b 223 1122 319 1079 276 1122 b 127 1026 170 1122 127 1079 b 223 930 127 973 170 930 z m 139 -88 b 139 -128 139 -101 139 -114 b 1 -390 138 -258 125 -384 b -87 -252 -114 -396 -87 -252 l -260 -251 b -253 -341 -260 -251 -262 -292 b 58 -506 -226 -481 -87 -529 b 274 -322 169 -488 239 -417 b 303 -128 294 -272 302 -203 b 304 -89 304 -115 304 -102 l 304 660 l 139 660 z "},"k":{"ha":1021,"x_min":0,"x_max":0,"o":"m 514 396 l 986 671 l 715 671 l 231 379 l 232 1129 l 65 1129 l 63 0 l 231 0 l 231 239 l 369 321 l 762 0 l 997 0 z "},"l":{"ha":294,"x_min":0,"x_max":0,"o":"m 230 0 l 230 1129 l 63 1129 l 63 0 z "},"m":{"ha":1788,"x_min":0,"x_max":0,"o":"m 1722 324 b 1601 593 1723 406 1691 521 b 1336 679 1504 671 1401 678 b 1092 611 1247 680 1155 658 b 958 442 992 536 958 442 b 857 593 941 500 911 549 b 591 679 760 671 656 678 b 347 611 502 680 412 657 b 232 463 269 555 232 463 b 232 668 232 530 232 601 l 63 668 l 63 -2 l 234 -2 b 233 252 234 101 231 150 b 281 416 236 337 262 389 b 414 524 322 477 375 510 b 717 502 522 564 653 553 b 805 274 782 451 805 387 b 805 -2 804 157 805 115 l 979 -2 l 979 223 b 1025 416 981 320 995 370 b 1147 520 1066 477 1110 503 b 1462 502 1241 561 1392 556 b 1550 274 1528 451 1550 387 b 1550 -2 1549 157 1550 114 l 1723 -2 b 1723 258 1723 126 1723 130 b 1722 324 1724 274 1722 298 z "},"n":{"ha":1043,"x_min":0,"x_max":0,"o":"m 978 326 b 857 594 979 407 946 522 b 591 680 760 672 657 680 b 348 612 502 682 412 659 b 232 464 269 556 232 464 b 232 670 232 531 232 602 l 63 670 b 64 -1 63 447 64 222 b 234 -1 117 -1 181 -1 b 234 253 234 102 231 150 b 281 417 236 339 262 390 b 419 522 322 478 381 509 b 717 504 527 560 643 556 b 805 275 785 455 805 389 b 805 -1 805 158 805 116 b 978 -1 863 -1 921 -1 b 979 260 978 128 979 131 b 978 326 980 275 977 300 z "},"o":{"ha":1036,"x_min":0,"x_max":0,"o":"m 518 682 b 31 334 249 682 31 526 b 518 -14 31 141 249 -14 b 1004 334 786 -14 1004 141 b 518 682 1004 526 786 682 z m 516 121 b 204 338 343 121 204 218 b 516 555 204 458 343 555 b 828 338 688 555 828 458 b 516 121 828 218 688 121 z "},"p":{"ha":1140,"x_min":0,"x_max":0,"o":"m 563 688 b 235 511 321 663 235 511 l 235 672 l 65 672 l 63 -444 l 233 -444 l 235 133 b 563 -8 235 133 329 12 b 1097 340 825 -31 1097 97 b 563 688 1097 601 830 715 z m 563 128 b 268 344 400 137 268 225 b 563 560 268 463 408 554 b 912 340 748 567 915 507 b 563 128 909 187 753 119 z "},"q":{"ha":1135,"x_min":0,"x_max":0,"o":"m 39 338 b 573 -10 39 96 311 -33 b 902 131 807 10 902 131 l 902 -451 l 1071 -451 l 1071 665 l 902 665 l 902 509 b 573 686 902 509 815 662 b 39 338 306 713 39 599 z m 224 338 b 573 558 221 505 388 565 b 869 342 728 552 869 462 b 573 127 869 223 736 135 b 224 338 384 117 227 185 z "},"r":{"ha":738,"x_min":0,"x_max":0,"o":"m 335 635 b 229 464 252 570 229 464 b 229 669 229 532 229 601 l 64 669 b 63 0 64 446 63 223 b 236 0 117 0 183 0 b 237 243 236 103 237 243 b 435 549 234 374 302 555 b 528 445 543 544 528 445 l 703 444 b 702 514 703 444 707 477 b 335 635 680 693 433 710 z "},"s":{"ha":924,"x_min":0,"x_max":0,"o":"m 689 386 b 295 414 564 404 421 402 b 247 518 198 423 208 489 b 448 567 281 543 343 568 b 649 516 556 567 614 542 b 690 444 688 485 690 444 l 866 443 b 845 517 866 443 867 476 b 579 671 781 629 659 657 b 79 557 532 680 193 711 b 97 350 17 474 43 396 b 460 275 180 279 340 283 b 714 224 589 266 692 263 b 633 130 732 191 719 149 b 284 143 518 106 366 110 b 212 230 206 175 212 230 l 33 231 b 122 74 33 231 42 135 b 810 63 270 -39 684 -33 b 885 237 871 110 899 177 b 689 386 864 328 781 372 z "},"t":{"ha":621,"x_min":0,"x_max":0,"o":"m 217 0 l 388 0 b 388 532 388 36 388 488 l 579 531 l 579 667 l 388 667 b 390 1129 388 824 390 1064 l 219 1129 l 217 667 l 43 667 l 43 532 l 217 532 z "},"u":{"ha":1043,"x_min":0,"x_max":0,"o":"m 978 667 b 808 667 925 667 862 667 b 809 424 808 564 810 522 b 761 249 808 338 780 276 b 623 144 720 188 662 156 b 325 163 524 114 386 115 b 237 391 260 214 237 277 b 237 667 238 508 237 550 b 64 667 180 667 121 667 b 64 406 64 538 64 535 b 65 340 63 391 65 366 b 185 72 64 259 96 144 b 451 -14 282 -6 386 -13 b 695 54 540 -15 630 8 b 810 187 773 110 810 187 b 810 -3 810 119 810 64 l 979 -3 b 978 667 979 219 978 444 z "},"v":{"ha":990,"x_min":0,"x_max":0,"o":"m 784 670 l 500 142 l 211 670 l 23 670 b 413 0 158 431 288 221 l 586 0 b 967 670 659 131 857 477 z "},"w":{"ha":1753,"x_min":0,"x_max":0,"o":"m 1546 671 l 1263 140 l 972 671 l 784 671 l 502 146 l 211 671 l 23 671 b 413 0 158 431 288 221 l 603 0 l 875 518 l 1154 0 l 1347 0 b 1727 671 1420 131 1618 477 z "},"x":{"ha":968,"x_min":0,"x_max":0,"o":"m 603 334 l 940 670 l 714 670 l 481 421 l 247 670 l 26 670 l 363 326 l 23 0 l 245 0 l 484 235 l 722 0 l 943 0 z "},"y":{"ha":993,"x_min":0,"x_max":0,"o":"m 966 669 l 784 669 l 500 141 l 211 669 l 23 669 l 416 -1 l 179 -447 l 350 -447 l 611 44 b 966 669 697 196 868 495 z "},"z":{"ha":854,"x_min":0,"x_max":0,"o":"m 821 665 l 31 665 l 31 548 l 551 548 l 31 91 l 31 -2 l 821 -2 l 821 118 l 294 118 l 821 579 z "}," ":{"ha":507,"x_min":0,"x_max":0,"o":""},"’":{"ha":376,"x_min":0,"x_max":0,"o":"m 287 1174 l 99 1174 b 145 985 99 1174 150 1078 b 72 796 138 857 72 796 l 205 796 b 295 974 205 796 270 860 b 287 1174 317 1078 287 1174 z "},"“":{"ha":665,"x_min":0,"x_max":0,"o":"m 593 1174 l 460 1174 b 370 995 460 1174 395 1110 b 378 796 347 892 378 796 l 566 796 b 520 985 566 796 515 892 b 593 1174 527 1112 593 1174 z m 170 1174 b 80 995 170 1174 105 1110 b 88 796 57 892 88 796 l 276 796 b 230 985 276 796 225 892 b 303 1174 237 1112 303 1174 z "},"”":{"ha":665,"x_min":0,"x_max":0,"o":"m 99 1174 b 145 985 99 1174 150 1078 b 72 796 138 857 72 796 l 205 796 b 295 975 205 796 270 860 b 287 1174 317 1078 287 1174 z m 577 1174 l 389 1174 b 435 985 389 1174 440 1078 b 362 796 428 857 362 796 l 495 796 b 585 975 495 796 560 860 b 577 1174 608 1078 577 1174 z "},"":{"ha":1254,"x_min":0,"x_max":0,"o":"m 1182 278 l 1182 410 l 72 410 l 72 278 z "},"":{"ha":1733,"x_min":0,"x_max":0,"o":"m 1662 282 l 1662 409 l 72 409 l 72 282 z "}}}
